<svg width="150" height="150" viewBox="0 0 150 150" fill="none" xmlns="http://www.w3.org/2000/svg">
<path d="M145.306 150C144.803 150.002 144.302 149.92 143.825 149.756L121.871 142.434C113.328 147.394 103.626 150.004 93.7484 150C78.8358 149.985 64.5383 144.054 53.9935 133.508C43.4487 122.963 37.5181 108.664 37.5032 93.75C37.5181 78.8362 43.4487 64.5375 53.9935 53.9918C64.5383 43.4461 78.8358 37.515 93.7484 37.5001C108.661 37.515 122.958 43.4461 133.503 53.9918C144.048 64.5375 149.979 78.8362 149.994 93.75C149.995 103.628 147.385 113.331 142.429 121.875L149.759 143.859C150.035 144.686 150.075 145.573 149.874 146.421C149.674 147.268 149.241 148.044 148.625 148.659C147.74 149.528 146.546 150.01 145.306 150ZM93.7484 46.8751C81.322 46.89 69.4088 51.8334 60.622 60.6209C51.8353 69.4084 46.8923 81.3226 46.8774 93.75C46.8923 106.177 51.8353 118.092 60.622 126.879C69.4088 135.667 81.322 140.61 93.7484 140.625C102.607 140.617 111.281 138.091 118.759 133.341C119.346 132.968 120.01 132.731 120.7 132.647C121.391 132.562 122.092 132.633 122.752 132.853L137.901 137.897L132.848 122.756C132.628 122.096 132.557 121.395 132.642 120.704C132.726 120.014 132.963 119.35 133.336 118.762C138.086 111.285 140.613 102.61 140.619 93.75C140.604 81.3226 135.662 69.4084 126.875 60.6209C118.088 51.8334 106.175 46.89 93.7484 46.8751ZM6.17469 121.631L34.2973 112.256C35.4769 111.865 36.4527 111.02 37.0099 109.909C37.5672 108.798 37.6603 107.511 37.2689 106.331C37.0741 105.747 36.7659 105.207 36.3622 104.741C35.9585 104.276 35.467 103.895 34.9159 103.62C34.3648 103.345 33.7649 103.181 33.1505 103.138C32.536 103.095 31.9191 103.173 31.335 103.369L12.1085 109.772L19.3173 88.125C19.5521 87.4126 19.6125 86.6542 19.4934 85.9136C19.3743 85.1729 19.0793 84.4717 18.633 83.8688C11.9337 74.8941 8.69843 63.8029 9.52164 52.6336C10.3448 41.4643 15.1713 30.9674 23.1138 23.072C27.4578 18.7116 32.6232 15.2559 38.3112 12.9049C43.9993 10.5538 50.097 9.35413 56.2516 9.3752C62.4082 9.35781 68.5072 10.5619 74.1953 12.9178C79.8834 15.2737 85.0478 18.7346 89.3894 23.1002C90.2684 23.9789 91.4603 24.4726 92.7032 24.4726C93.946 24.4726 95.138 23.9789 96.0169 23.1002C96.8956 22.2211 97.3893 21.0291 97.3893 19.7861C97.3893 18.5432 96.8956 17.3511 96.0169 16.4721C90.8072 11.233 84.6101 7.07952 77.7843 4.2521C70.9585 1.42469 63.6397 -0.0204998 56.2516 0.00021967C48.8635 -0.0204998 41.5447 1.42469 34.7189 4.2521C27.8932 7.07952 21.696 11.233 16.4863 16.4721C7.24547 25.6436 1.50508 37.7599 0.260338 50.7204C-0.984408 63.6808 2.34497 76.6684 9.67126 87.4313L0.240813 115.706C-0.0348261 116.533 -0.0747085 117.42 0.125649 118.267C0.326007 119.115 0.758678 119.891 1.37509 120.506C1.81117 120.941 2.32871 121.286 2.89812 121.521C3.46752 121.756 4.07763 121.876 4.69356 121.875C5.19743 121.877 5.69811 121.795 6.17469 121.631Z" fill="black"/>
</svg>