<svg xmlns="http://www.w3.org/2000/svg" x="0px" y="0px" width="100" height="100" viewBox="0 0 48 48">
<path d="M 17.921875 1.0136719 A 1.50015 1.50015 0 0 0 17.730469 1.0273438 C 15.500674 1.3305038 13.750468 1.8556234 12.085938 3.2285156 C 10.669951 4.3976183 9.9072411 5.8387684 9.5898438 7.2460938 C 9.3517174 8.3019347 9.3165259 9.3237725 9.2910156 10.34375 C 7.4445273 12.542435 5.5122886 16.078983 5.5429688 21.583984 C 5.5488919 22.612667 5.6602546 23.811797 5.7773438 24.800781 L 2.984375 26.324219 C 2.4076232 26.639351 2.10079 27.306057 2.234375 27.947266 L 2.2363281 27.949219 L 2.2363281 27.951172 C 2.3730391 28.593119 2.9206133 29.080129 3.578125 29.134766 L 6.6210938 29.388672 C 8.2707873 34.601008 11.678485 38.720073 16.005859 40.042969 L 16.001953 44.001953 C 16.001953 44.266953 16.105969 44.520031 16.292969 44.707031 C 16.479969 44.894031 16.733047 44.998047 16.998047 44.998047 C 17.548047 44.998047 17.994141 44.553906 17.994141 44.003906 L 17.998047 40.447266 C 18.32832 40.479662 18.661852 40.5 19 40.5 C 20.395557 40.5 21.739887 40.200373 22.998047 39.671875 L 22.994141 44.003906 C 22.994141 44.268906 23.100109 44.521984 23.287109 44.708984 C 23.474109 44.895984 23.727187 45.001953 23.992188 45.001953 C 24.542187 45.001953 24.988281 44.555859 24.988281 44.005859 L 24.992188 39.21875 C 26.425912 39.832236 28.222492 39.853553 30.035156 38.998047 A 1.50015 1.50015 0 0 0 30.167969 38.927734 C 40.504335 32.703956 44.495502 21.375321 46.525391 10.210938 A 1.50015 1.50015 0 0 0 44.537109 8.53125 C 44.742197 8.4491261 44.430991 8.542966 44.09375 8.5585938 C 43.837756 8.5704558 43.479103 8.5684894 43.134766 8.5683594 C 43.441082 8.1939622 43.703611 7.9589877 44.005859 7.5625 C 45.065438 6.1725503 46.014023 4.8370713 46.472656 3.5644531 A 1.50015 1.50015 0 0 0 44.662109 1.609375 C 39.729353 2.9715406 30.107288 0.93038404 17.921875 1.0136719 z M 18.050781 4.0175781 C 27.983446 3.9626651 35.993415 5.4684677 42.150391 4.9121094 C 41.920079 5.2464048 41.876138 5.4095746 41.621094 5.7441406 C 40.641672 7.0289409 39.519787 8.3068849 38.880859 8.9160156 A 1.50015 1.50015 0 0 0 39.884766 11.501953 C 40.489747 11.514743 41.634157 11.560166 42.710938 11.572266 C 42.858835 11.573966 42.984329 11.568159 43.128906 11.568359 C 41.07325 21.647215 37.339244 31.049269 28.707031 36.296875 C 26.943266 37.11345 26.196013 36.782506 25.498047 36.009766 C 25.053235 35.517301 24.772868 34.6735 24.605469 33.748047 C 25.511093 33.672557 26.374176 33.346588 27.033203 32.744141 C 28.279827 31.604544 28.780039 29.577746 27.958984 27.660156 C 25.803555 22.623973 27.49123 17.370871 28.253906 14.322266 A 1.50015 1.50015 0 0 0 26.798828 12.458984 C 25.634409 12.458984 24.272179 12.444554 22.949219 12.433594 C 23.216651 10.816146 23.102552 9.275954 22.216797 8.1679688 C 20.952839 6.5868879 18.799176 5.9725001 16.658203 6.4121094 C 16.307329 6.3489662 15.951149 6.3443458 15.599609 6.4023438 C 15.078854 6.4882598 14.569673 6.6985579 14.103516 7.0039062 C 13.427724 7.4465717 12.83182 8.0926809 12.376953 8.8828125 C 12.408938 8.5327919 12.449389 8.1999351 12.515625 7.90625 C 12.722379 6.9895129 13.050124 6.3243823 13.996094 5.5429688 C 15.197929 4.5517044 16.090287 4.2890674 18.050781 4.0175781 z M 15.751953 7.3867188 C 15.835523 7.3726468 15.911537 7.4126541 15.994141 7.4082031 C 15.461255 7.4375691 14.963751 7.6947787 14.5 8.0371094 C 14.56022 7.9922164 14.5892 7.8799236 14.650391 7.8398438 C 15.015108 7.6009421 15.387364 7.4481154 15.751953 7.3867188 z M 16.115234 8.3574219 C 16.236383 8.3574219 16.349334 8.3779878 16.457031 8.4179688 C 16.801808 8.5470155 17.098733 8.8869841 17.253906 9.4882812 L 17.255859 9.4882812 C 17.425416 10.144576 17.367053 10.962256 17.068359 11.763672 L 17.066406 11.769531 C 16.766844 12.572284 16.271098 13.226323 15.710938 13.611328 C 15.199207 13.962301 14.747515 14.022343 14.40625 13.894531 C 14.037014 13.755906 13.733432 13.363428 13.59375 12.746094 C 13.454068 12.12876 13.50224 11.326008 13.794922 10.542969 C 14.297514 9.2054248 15.397188 8.3574219 16.115234 8.3574219 z M 18.228516 9.2753906 C 18.228516 9.2753906 18.230469 9.2753906 18.230469 9.2753906 C 18.281405 9.481786 18.31833 9.6970942 18.335938 9.9199219 C 18.3179 9.7003514 18.280455 9.4848056 18.228516 9.2753906 z M 19.292969 9.5800781 C 19.52288 9.708203 19.726812 9.8580915 19.873047 10.041016 C 20.343396 10.629372 20.588147 11.594855 19.767578 13.259766 A 1.50015 1.50015 0 0 0 21.113281 15.421875 C 22.384014 15.421875 23.671852 15.436306 24.953125 15.447266 C 24.120316 18.609026 22.922027 23.516552 25.201172 28.841797 C 25.599118 29.771208 25.348189 30.218143 25.007812 30.529297 C 24.667437 30.840451 24.217362 30.954951 23.712891 30.658203 A 1.50015 1.50015 0 0 0 21.458984 31.828125 C 21.320647 33.513368 21.578984 35.236264 22.339844 36.681641 C 21.279339 37.216326 20.162807 37.5 19 37.5 C 15.260254 37.5 11.765489 34.472587 9.8925781 29.660156 L 13.916016 29.996094 A 1.0001 1.0001 0 1 0 14.083984 28.003906 L 5.4082031 27.279297 L 13.478516 22.876953 A 1.0001 1.0001 0 0 0 12.96875 20.994141 A 1.0001 1.0001 0 0 0 12.746094 21.03125 A 1.026 2.511 0 0 0 11.953125 16.925781 A 1.026 2.511 0 0 0 11.496094 21.681641 L 8.6308594 23.244141 C 8.5805132 22.642868 8.5437624 22.043427 8.5410156 21.566406 C 8.5146384 16.749189 10.024289 14.027601 11.541016 12.285156 C 11.560551 12.67553 11.604708 13.057952 11.705078 13.414062 C 12.00752 14.487123 12.692039 15.388722 13.703125 15.767578 C 14.042103 15.894545 14.400072 15.957031 14.759766 15.957031 C 15.470172 15.957031 16.187331 15.711348 16.845703 15.259766 C 17.773566 14.62179 18.505999 13.632358 18.941406 12.46875 C 19.30001 11.510398 19.415546 10.513034 19.292969 9.5800781 z M 18.337891 10.28125 C 18.337842 10.401932 18.345339 10.519417 18.335938 10.642578 C 18.34528 10.52062 18.337991 10.401745 18.337891 10.28125 z M 18.097656 11.808594 C 18.065662 11.912064 18.044339 12.016306 18.005859 12.119141 C 18.004957 12.121541 18.002853 12.1225 18.001953 12.125 L 18.003906 12.119141 C 18.042422 12.01624 18.065393 11.912244 18.097656 11.808594 z M 17.761719 12.443359 C 17.761719 12.443359 17.763672 12.443359 17.763672 12.443359 C 17.716024 12.545428 17.66229 12.642482 17.611328 12.742188 C 17.66156 12.642573 17.71472 12.545187 17.761719 12.443359 z M 12.669922 13.082031 C 12.723522 13.284874 12.826012 13.457311 12.914062 13.640625 C 12.832562 13.472289 12.721271 13.338622 12.666016 13.142578 C 12.661116 13.125338 12.674522 13.099461 12.669922 13.082031 z M 14.072266 14.833984 C 14.348393 14.934457 14.642522 14.921104 14.935547 14.896484 C 14.879007 14.900984 14.815267 14.957031 14.759766 14.957031 C 14.523544 14.957031 14.293991 14.914781 14.072266 14.833984 z M 18.001953 16.925781 A 1.026 2.511 0 1 0 18.001953 21.947266 A 1.026 2.511 0 1 0 18.001953 16.925781 z M 12.949219 30.949219 A 1.0001 1.0001 0 0 0 12.345703 32.703125 C 13.345456 33.600888 14.688021 34.013801 16.019531 34.025391 C 17.351042 34.036981 18.718885 33.641379 19.710938 32.675781 A 1.0001 1.0001 0 0 0 19.007812 30.949219 A 1.0001 1.0001 0 0 0 18.316406 31.242188 C 17.808459 31.73659 16.945849 32.033301 16.037109 32.025391 C 15.12837 32.017491 14.220888 31.69908 13.681641 31.214844 A 1.0001 1.0001 0 0 0 12.949219 30.949219 z"></path>
</svg>