<svg width="553" height="506" viewBox="0 0 553 506" fill="none" xmlns="http://www.w3.org/2000/svg">
<path d="M229.5 2.5C355.008 2.5 456.5 98.4464 456.5 216.5C456.5 334.554 355.008 430.5 229.5 430.5C103.992 430.5 2.5 334.554 2.5 216.5C2.5 98.4464 103.992 2.5 229.5 2.5Z" stroke="#FFC400" stroke-width="5"/>
<path d="M198.925 87.2798C193.78 63.1192 222.558 46.4896 240.922 63.0117L326.867 140.338C336.046 148.596 349.499 150.005 360.189 143.827L460.29 85.9828C481.678 73.6236 506.386 95.8538 496.348 118.424L449.365 224.059C444.347 235.341 447.164 248.57 456.343 256.828L542.289 334.155C560.653 350.677 547.146 381.045 522.578 378.473L407.595 366.432C395.315 365.146 383.604 371.914 378.586 383.195L331.603 488.83C321.564 511.401 288.508 507.939 283.363 483.779L259.283 370.702C256.711 358.626 246.655 349.58 234.376 348.294L119.393 336.253C94.8245 333.68 87.9017 301.173 109.29 288.813L209.39 230.968C220.081 224.791 225.578 212.432 223.006 200.356L198.925 87.2798Z" fill="#E74880" stroke="black" stroke-width="3"/>
</svg>