<svg xmlns="http://www.w3.org/2000/svg" x="0px" y="0px" width="100" height="100" viewBox="0 0 48 48">
<path fill-rule="evenodd" d="M-0.001,26.995v2.001H2v-2.001H-0.001	z" clip-rule="evenodd"></path><path fill-rule="evenodd" d="M46,25.995v2.001h2.001v-2.001H46z" clip-rule="evenodd"></path><path fill-rule="evenodd" d="M14,2.995v2.001h2.001V2.995H14z" clip-rule="evenodd"></path><path fill-rule="evenodd" d="M26.999,45.997l-3-0.001	c-1.656,0-2.999-1.345-2.999-3.001l-0.001-1.076l-0.439-0.035c-1.467-0.236-2.741-0.835-3.839-1.692	c-1.193,0.567-2.544,0.804-3.721,0.804c-1.733,0-2.863-1.467-3.484-2.639l-0.199-0.411l-0.545-0.04	c-2.371-0.36-4.184-1.764-4.653-3.825l-0.051-0.457l-0.997-0.557C1.555,32.171,0,30.955,0,28.995c0-3.675,3.903-6.277,6.823-6.871	l0.237-0.027l0.091-1.332c0.599-4.421,2.945-8.556,6.476-11.349l1.3-0.895l-0.063-0.368C14.591,7.315,14,6.317,14,4.995	c0-0.765,0.829-1.248,1.495-0.868c1.704,0.973,3.6,1.868,5.505,1.868c10.544,0,17.324,3.228,20.403,12.768l0.405,1.428l0.753,0.213	c3.12,1.2,5.439,4.32,5.439,7.591c0,2.715-1.817,5.336-4.532,6.543l-0.776,0.272l-0.497,0.943c-0.745,1.059-1.82,1.832-3.243,2.125	l-0.376,0.049l-0.595,0.884c-1.943,2.499-4.289,3.095-7.981,3.175v1.009C30,44.651,28.656,45.997,26.999,45.997z" clip-rule="evenodd"></path><path fill="#fff" fill-rule="evenodd" d="M18,35.995	c-1.141,1.389-3.207,2-5,2c-1.548,0-2.581-1.883-3-3c-3.024,0-5-1.704-5-4c-2.191-1.219-4-2.115-4-4c0-3.428,4.439-6,7-6	c0-5.631,3.091-11.089,8-14c0.063-1.241-1-2.501-1-4c1.716,0.98,3.812,2,6,2c10.909,0,17.379,3.459,20,14c3.339,0.619,6,3.765,6,7	c0,2.603-2.021,5.219-5,6c-0.656,1.701-1.951,2.877-4,3c-2.016,3.421-4.236,4-9,4h-4l-2-3H18z" clip-rule="evenodd"></path><path fill-rule="evenodd" d="M24.167,39.551l-1.703-2.556H18.42	l-0.22,0.229c-1.431,1.271-3.493,1.771-5.2,1.771c-1.733,0-2.863-1.467-3.484-2.639l-0.199-0.411l-0.545-0.04	c-2.371-0.36-4.184-1.764-4.653-3.825l-0.051-0.457l-0.997-0.557C1.555,30.171,0,28.955,0,26.995c0-3.675,3.903-6.277,6.823-6.871	l0.237-0.027l0.091-1.332c0.599-4.421,2.945-8.556,6.476-11.349l1.3-0.895l-0.063-0.368C14.591,5.315,14,4.317,14,2.995	c0-0.765,0.829-1.248,1.495-0.868c1.704,0.973,3.6,1.868,5.505,1.868c10.544,0,17.324,3.228,20.403,12.768l0.405,1.428l0.753,0.213	c3.12,1.2,5.439,4.32,5.439,7.591c0,2.715-1.817,5.336-4.532,6.543l-0.776,0.272l-0.497,0.943c-0.745,1.059-1.82,1.832-3.243,2.125	l-0.376,0.049l-0.595,0.884c-2.112,2.716-4.701,3.184-8.981,3.184h-4C24.665,39.995,24.353,39.829,24.167,39.551z M37.137,34.489	c0.169-0.287,0.471-0.471,0.803-0.491c1.601-0.096,2.589-0.971,3.127-2.361c0.115-0.3,0.368-0.527,0.679-0.608	C44.329,30.351,46,28.101,46,25.995c0-2.729-2.296-5.481-5.183-6.016c-0.385-0.072-0.693-0.361-0.788-0.743	C37.548,9.262,31.592,5.995,21,5.995c-1.236,0-2.428-0.285-3.528-0.695L16.525,4.89c0.26,0.693,0.509,1.427,0.473,2.156	c-0.017,0.335-0.201,0.639-0.489,0.811C11.904,10.587,9,15.719,9,20.995c0,0.552-0.449,1-1,1c-2.248,0-6,2.373-6,5	c0,1.017,0.704,1.58,3.485,3.127C5.803,30.298,6,30.633,6,30.995c0,1.565,1.329,3,4,3c0.416,0,0.789,0.26,0.936,0.649	c0.452,1.207,1.284,2.351,2.064,2.351c1.635,0,3.349-0.567,4.227-1.635C17.416,35.13,17.7,34.995,18,34.995h5	c0.333,0,0.645,0.168,0.832,0.445l1.703,2.555H29C33.615,37.995,35.392,37.451,37.137,34.489z" clip-rule="evenodd"></path><path fill="#fff" fill-rule="evenodd" d="M29,40.995	c0,1.104-0.896,2.001-2,2.001l-3-0.001c-1.104,0-2-0.897-2-2.001v-1.999c-7,0-10-8.976-10-16c0-4.532,0.752-8.121,4-13	c1.513,3.903,3.608,5.889,7,7v-7c1.129,2.44,1.72,5.24,4,6l6,2v5c1.211-0.852,1.976-1,3-1c2,0,2,1.964,2,3c0,2.98-2.343,5.463-4,8	c-0.911-0.631-1.892-1-3-1c-1.884,0-4,1.66-4,4c0,1.263,0.837,2.337,2,3V40.995z" clip-rule="evenodd"></path><path fill-rule="evenodd" d="M26.999,43.997l-3-0.001	c-1.656,0-2.999-1.345-2.999-3.001l-0.001-1.076l-0.439-0.035C13.647,38.766,11,29.625,11,22.995c0-4.761,0.827-7.536,4.167-12.553	c0.388-0.584,1.244-0.596,1.648-0.024c1.5,2.119,2.645,3.14,4.432,3.907L22,14.615v-4.62c0-1.065,1.459-1.387,1.907-0.42	c1.207,2.607,1.631,3.879,3.409,4.472l6,2C33.724,16.183,34,16.566,34,16.995v4.339l0.277-0.113	c0.568-0.173,1.115-0.225,1.723-0.225c1.444,0,2.289,0.777,2.677,1.739C39.012,23.565,39,24.514,39,24.995	c0,3.245-2.209,5.555-4.164,8.548c-0.307,0.471-0.944,0.595-1.407,0.275c-0.777-0.539-1.564-0.823-2.429-0.823c-1.407,0-3,1.284-3,3	c0,0.787,0.527,1.58,1.495,2.132C29.807,38.305,30,38.637,30,38.995v2C30,42.651,28.656,43.997,26.999,43.997z M28,40.995v-1.489	l-0.46-0.327C26.644,38.39,26,37.301,26,35.995c0-2.963,2.637-5,5-5c0.675,0,1.305,0.115,1.899,0.319l0.813,0.351l0.681-0.973	C35.683,28.894,37,26.985,37,24.995c0-0.553-0.013-1.104-0.179-1.515c-0.109-0.272-0.269-0.485-0.821-0.485	c-0.833,0-1.395,0.093-2.425,0.819C32.913,24.279,32,23.805,32,22.995v-5.279l-5.317-1.772c-1.044-0.347-1.803-0.892-2.399-1.556	L24,14.022v1.973c0,0.669-0.645,1.149-1.285,0.959c-2.628-0.78-4.269-1.608-5.887-3.329l-0.76-0.88l-0.307,0.481	C13.519,16.918,13,19.229,13,22.995c0,6.92,2.952,15,9,15c0.551,0,1,0.449,1,1v1.999c0,0.553,0.448,1.001,1,1.001l3,0.001	C27.551,41.997,28,41.549,28,40.995z" clip-rule="evenodd"></path><path fill-rule="evenodd" d="M19.481,29.851	c-0.727-0.44-1.345-0.983-1.785-1.632C17.251,27.562,17,26.811,17,25.995c0-2.528,0.929-5.067,2.103-7.443	c0.244-0.495,0.844-0.697,1.34-0.453c0.495,0.244,0.697,0.844,0.453,1.34C19.765,21.729,19,23.931,19,25.995	c0,0.385,0.113,0.751,0.352,1.103c0.244,0.359,0.625,0.716,1.165,1.043c0.472,0.285,0.623,0.901,0.337,1.373	S19.953,30.137,19.481,29.851z" clip-rule="evenodd"></path><path fill-rule="evenodd" d="M20,31.995c0-0.551,0.448-1,1-1	c1.284,0,2.183-0.149,2.964-0.429c0.791-0.284,1.52-0.723,2.457-1.387c0.451-0.319,1.076-0.212,1.395,0.239	c0.319,0.451,0.212,1.076-0.239,1.395c-0.987,0.697-1.891,1.259-2.936,1.635c-1.055,0.379-2.193,0.548-3.641,0.548	C20.448,32.995,20,32.547,20,31.995z" clip-rule="evenodd"></path><path fill-rule="evenodd" d="M23.143,26.263	c-0.724-1.003-1.141-2.339-1.141-3.768c0-1.428,0.417-2.764,1.141-3.767c0.723-1.001,1.808-1.733,3.108-1.733	c1.299,0,2.384,0.732,3.107,1.733c0.724,1.003,1.143,2.339,1.143,3.767c0,1.429-0.419,2.765-1.143,3.768	c-0.723,1.001-1.808,1.732-3.107,1.732C24.951,27.995,23.865,27.265,23.143,26.263z M27.736,25.093	c0.453-0.627,0.764-1.541,0.764-2.597c0-1.055-0.311-1.969-0.764-2.596c-0.453-0.627-0.992-0.904-1.485-0.904	c-0.495,0-1.033,0.277-1.487,0.904c-0.453,0.627-0.763,1.541-0.763,2.596c0,1.056,0.309,1.971,0.763,2.597	c0.453,0.627,0.992,0.903,1.487,0.903C26.744,25.995,27.283,25.719,27.736,25.093z" clip-rule="evenodd"></path><path fill-rule="evenodd" d="M12.643,26.263	c-0.724-1.003-1.141-2.339-1.141-3.768c0-1.428,0.417-2.764,1.141-3.767c0.723-1.001,1.808-1.733,3.108-1.733	c2.136,0,3.752,1.936,4.151,4.32c0.091,0.544-0.277,1.06-0.821,1.151c-0.544,0.091-1.06-0.277-1.151-0.821	c-0.271-1.619-1.251-2.649-2.179-2.649c-0.495,0-1.033,0.277-1.487,0.904c-0.453,0.627-0.763,1.541-0.763,2.596	c0,1.056,0.309,1.971,0.763,2.597c0.453,0.627,0.992,0.903,1.487,0.903c0.481,0,1.005-0.261,1.452-0.856	c0.332-0.441,0.959-0.531,1.4-0.199c0.441,0.332,0.531,0.959,0.199,1.4c-0.721,0.96-1.787,1.655-3.051,1.655	C14.451,27.995,13.365,27.265,12.643,26.263z" clip-rule="evenodd"></path><path fill-rule="evenodd" d="M17,18.995	c1.104,0,2.001,1.12,2.001,2.5c0,1.38-0.897,2.5-2.001,2.5s-2.001-1.12-2.001-2.5C14.999,20.115,15.896,18.995,17,18.995z" clip-rule="evenodd"></path><path fill-rule="evenodd" d="M27.999,18.995	c1.104,0,2.001,1.12,2.001,2.5c0,1.38-0.897,2.5-2.001,2.5c-1.104,0-2.001-1.12-2.001-2.5	C25.997,20.115,26.895,18.995,27.999,18.995z" clip-rule="evenodd"></path>
</svg>