<svg xmlns="http://www.w3.org/2000/svg" x="0px" y="0px" width="100" height="100" viewBox="0 0 48 48">
<path d="M 23.9375 1.9570312 C 19.250027 1.9568014 14.586486 2.3966633 10.833984 3.2792969 L 10.791016 3.2890625 L 10.75 3.3027344 C 7.9999215 4.1179516 5.7588344 5.4130411 4.2382812 7.3808594 C 2.7177282 9.3486776 2 11.900082 2 14.947266 C 2 17.445814 2.7419939 19.774423 4.0117188 21.683594 C 4.3830946 22.242175 4.3446878 22.953864 3.9160156 23.470703 C 2.1384617 25.614799 1.0722656 28.470388 1.0722656 31.589844 C 1.0722656 34.864638 2.4152417 37.572008 4.3535156 39.529297 C 6.2917895 41.486586 8.7880339 42.751344 11.265625 43.460938 L 11.298828 43.46875 L 11.332031 43.476562 C 14.117147 44.139159 16.491727 44.658615 19.355469 44.888672 A 1.50015 1.50015 0 0 0 20.994141 43.273438 L 20.994141 39.734375 C 22.999584 39.967631 25.002118 39.971872 26.998047 39.732422 L 26.994141 43.039062 A 1.50015 1.50015 0 0 0 26.994141 43.570312 L 26.994141 43.587891 L 26.996094 43.587891 A 1.50015 1.50015 0 0 0 28.611328 44.798828 C 31.388944 44.573366 33.773137 44.152409 36.507812 43.474609 L 36.511719 43.474609 L 36.517578 43.472656 C 39.287444 42.767482 41.827473 41.490674 43.708984 39.507812 C 45.590496 37.524952 46.751953 34.817103 46.751953 31.591797 C 46.751953 28.529773 45.725449 25.720814 44.007812 23.589844 C 43.588825 23.069772 43.560815 22.352751 43.935547 21.802734 C 45.252022 19.870074 46.021484 17.495065 46.021484 14.947266 C 46.021484 11.917021 45.34706 9.4632111 43.845703 7.5605469 C 42.344364 5.6579297 40.154048 4.402306 37.380859 3.3398438 L 37.28125 3.3007812 L 37.179688 3.2773438 C 33.336914 2.397654 28.624973 1.9572611 23.9375 1.9570312 z M 23.900391 4.9980469 C 28.378313 4.9972551 32.885849 5.3939561 36.402344 6.1875 C 38.860651 7.1412275 40.493955 8.1548654 41.492188 9.4199219 C 42.505829 10.704508 43.021484 12.339511 43.021484 14.947266 C 43.021484 16.89253 42.435717 18.676281 41.455078 20.115234 C 40.341815 21.749218 40.432863 23.934728 41.671875 25.472656 C 42.94624 27.053686 43.751953 29.20182 43.751953 31.591797 C 43.751953 34.12549 42.921739 35.97797 41.53125 37.443359 C 40.141127 38.908362 38.130633 39.965544 35.779297 40.564453 C 35.779297 40.564453 35.777344 40.564453 35.777344 40.564453 C 33.375557 41.159366 31.333108 41.522892 28.996094 41.744141 L 28.998047 39.423828 L 28.974609 39.423828 C 32.188376 38.562019 34.966797 35.963005 34.966797 32.052734 L 34.966797 22.306641 L 35 22.283203 L 35 18.121094 C 35 17.835094 34.878062 17.563047 34.664062 17.373047 C 34.450063 17.183047 34.164859 17.094906 33.880859 17.128906 C 30.906859 17.481906 27.325 17.984 24 18 L 19 26 L 19.226562 26.259766 C 19.583562 26.670766 20.203094 26.720094 20.621094 26.371094 L 22.654297 24.675781 C 23.384297 24.066781 24.443547 24.057391 25.185547 24.650391 L 27.542969 26.535156 C 27.886969 26.810156 28.369422 26.829078 28.732422 26.580078 L 32.966797 23.677734 L 32.966797 32.052734 C 32.966797 35.196255 30.805845 37.065887 28.111328 37.634766 C 25.392997 38.134399 22.645458 38.105607 19.857422 37.634766 C 18.388717 37.287343 17.172199 36.638315 16.335938 35.730469 C 15.494834 34.817367 14.996094 33.64528 14.996094 32.052734 L 14.996094 23.427734 L 16 24 L 19 18 C 17.746 17.927 15.707922 17.461641 14.169922 17.181641 C 13.877922 17.128641 13.577609 17.207437 13.349609 17.398438 C 13.121609 17.588438 12.990234 17.871969 12.990234 18.167969 L 12.990234 22.283203 L 12.996094 22.287109 L 12.996094 32.052734 C 12.996094 34.085188 13.694087 35.81454 14.865234 37.085938 C 15.935746 38.248086 17.392661 38.985383 18.994141 39.429688 L 18.994141 41.833984 C 16.638172 41.60237 14.583577 41.1648 12.066406 40.566406 C 9.9997953 39.970522 7.9547153 38.904687 6.484375 37.419922 C 5.0078989 35.928961 4.0722656 34.074049 4.0722656 31.589844 C 4.0722656 29.1553 4.9101164 26.97267 6.2265625 25.384766 L 6.2246094 25.384766 C 7.487937 23.861605 7.6063898 21.672856 6.5097656 20.023438 L 6.5097656 20.021484 C 5.5634873 18.598701 5 16.852717 5 14.947266 C 5 12.356449 5.5693812 10.563275 6.6113281 9.2148438 C 7.6478059 7.8734898 9.2386085 6.8885791 11.572266 6.1914062 C 14.97416 5.3971234 19.422468 4.9988387 23.900391 4.9980469 z M 22.5 26 A 0.5 1 0 0 0 22.5 28 A 0.5 1 0 0 0 22.5 26 z M 25.5 26 A 0.5 1 0 0 0 25.5 28 A 0.5 1 0 0 0 25.5 26 z M 22.994141 32.009766 C 22.444141 32.009766 22 32.456859 22 33.005859 C 22 33.555859 22.445141 34 22.994141 34 L 25.005859 34 C 25.555859 34 26 33.555859 26 33.005859 C 26 32.456859 25.554859 32.010766 25.005859 32.009766 L 22.994141 32.009766 z"></path>
</svg>