<svg xmlns="http://www.w3.org/2000/svg" x="0px" y="0px" width="100" height="100" viewBox="0 0 48 48">
<path fill-rule="evenodd" d="M2.001,33.998v2.001h2.001v-2.001	H2.001z" clip-rule="evenodd"></path><path fill-rule="evenodd" d="M5.002,20.997v2.001h2.001v-2.001	H5.002z" clip-rule="evenodd"></path><path fill-rule="evenodd" d="M43.001,20.997v2.001h2.001v-2.001	H43.001z" clip-rule="evenodd"></path><path fill-rule="evenodd" d="M43.001,33.997v2.001h2.001v-2.001	H43.001z" clip-rule="evenodd"></path><path fill-rule="evenodd" d="M42.001,39.997v2.001h2.001v-2.001	H42.001z" clip-rule="evenodd"></path><path fill-rule="evenodd" d="M4.002,39.997v2.001h2.001v-2.001	H4.002z" clip-rule="evenodd"></path><path fill-rule="evenodd" d="M41.001,44.999l-34-0.001	c-1.707,0-2.999-1.559-2.999-3.001c0-0.891,0.109-1.792,0.296-2.688l0.452-1.569l-0.587-0.133c-0.564-0.181-1.123-0.424-1.669-0.745	c-0.665-0.391-0.653-1.36,0.021-1.736c1.429-0.796,2.625-1.895,3.657-3.235l0.672-0.973l-0.643-1.28	c-0.809-2.011-1.2-4.343-1.2-6.639c0-8.448,8.161-19,17-19c2.588,0,4.347,0.507,5.944,1.284l1.34,0.733l1.283,0.077	c7.771,0.924,14.433,8.584,14.433,16.905c0,1.557-0.123,3.085-0.309,4.607l-0.68,4.395l0.309,1.811	c0.153,0.617,0.352,1.217,0.6,1.797c0.184,0.435,0.04,0.941-0.348,1.211c-0.457,0.32-0.923,0.615-1.487,0.831l-0.455,0.124	l0.671,1.3c0.412,0.924,0.699,1.901,0.699,2.925C44.002,43.654,42.658,44.999,41.001,44.999z" clip-rule="evenodd"></path><path fill="#fff" fill-rule="evenodd" d="M41.002,41.999	c1.104,0,2-0.897,2-2.001c0-1.715-0.963-3.333-2-5c1.435,0,2.179-0.427,3-1c-0.537-1.264-0.86-2.601-1-4c0.529-3.064,1-5.983,1-9	c0-8.385-7.189-16-15-16c-1.981-1.181-3.781-2-7-2c-8.143,0-16,9.973-16,18c0,2.931,0.671,5.859,2,8c-1.303,2.093-2.905,3.835-5,5	c0.955,0.561,1.963,0.853,3,1c-0.597,1.665-1,3.373-1,4.999c0,0.943,0.896,2.001,2,2.001L41.002,41.999z" clip-rule="evenodd"></path><path fill-rule="evenodd" d="M41.001,42.999l-34-0.001	c-1.707,0-2.999-1.559-2.999-3.001c0-0.891,0.109-1.792,0.296-2.688l0.452-1.569l-0.587-0.133c-0.564-0.181-1.123-0.424-1.669-0.745	c-0.665-0.391-0.653-1.36,0.021-1.736c1.429-0.796,2.625-1.895,3.657-3.235l0.672-0.973l-0.643-1.28	c-0.809-2.011-1.2-4.343-1.2-6.639c0-8.448,8.161-19,17-19c2.588,0,4.347,0.507,5.944,1.284l1.34,0.733l1.283,0.077	c7.771,0.924,14.433,8.584,14.433,16.905c0,1.557-0.123,3.085-0.309,4.607l-0.68,4.395l0.309,1.811	c0.153,0.617,0.352,1.217,0.6,1.797c0.184,0.435,0.04,0.941-0.348,1.211c-0.457,0.32-0.923,0.615-1.487,0.831l-0.455,0.124	l0.671,1.3c0.412,0.924,0.699,1.901,0.699,2.925C44.002,41.654,42.658,42.999,41.001,42.999z M42.002,39.998	c0-1.38-0.781-2.753-1.849-4.471c-0.415-0.665,0.065-1.529,0.849-1.529c0.577,0,1.001-0.077,1.373-0.219l0.421-0.24l-0.416-1.249	c-0.177-0.716-0.3-1.448-0.375-2.192c-0.009-0.089-0.005-0.18,0.009-0.269c0.531-3.068,0.987-5.909,0.987-8.831	c0-7.892-6.8-15-14-15c-0.181,0-0.357-0.048-0.513-0.14c-1.879-1.121-3.501-1.86-6.487-1.86c-7.464,0-15,9.371-15,17	c0,2.801,0.644,5.532,1.849,7.473c0.2,0.323,0.2,0.732-0.001,1.056c-0.683,1.097-1.453,2.116-2.337,3.02l-1.385,1.235l1.013,0.227	c0.628,0.088,1.016,0.732,0.801,1.328c-0.575,1.604-0.94,3.192-0.94,4.66c0,0.444,0.499,1.001,1,1.001l34,0.001	C41.553,40.999,42.002,40.551,42.002,39.998z" clip-rule="evenodd"></path><path fill-rule="evenodd" d="M9.638,31.558	c-0.447-0.663,0.029-1.56,0.829-1.56h4.205l-0.6-0.751c-0.635-0.956-1.071-2.037-1.071-3.249c0-7.997,13.844-9.235,16.908-16.932	c0.209-0.527,0.816-0.775,1.335-0.544c5.736,2.548,9.757,8.055,9.757,14.476c0,8.893-7.679,16-17,16	C17.977,38.998,12.661,36.043,9.638,31.558z M39.002,22.998c0-4.853-2.661-9.164-6.74-11.681l-0.984-0.52l-0.257,0.523	c-4.259,7.171-16.019,8.675-16.019,14.679c0,1.461,1.076,2.833,2.665,4.255c0.683,0.611,0.249,1.745-0.665,1.745h-4.473l1.113,1.124	c2.688,2.397,6.333,3.876,10.36,3.876C32.343,36.998,39.002,30.666,39.002,22.998z" clip-rule="evenodd"></path><path fill-rule="evenodd" d="M17.386,27.787	c-0.435-0.34-0.512-0.969-0.173-1.404c0.34-0.435,0.969-0.512,1.404-0.173c0.664,0.519,1.34,0.788,1.957,0.788	c0.579,0,1.055-0.036,1.497-0.149c0.432-0.111,0.863-0.304,1.329-0.652c0.355-0.264,0.84-0.264,1.195,0	c0.468,0.348,0.9,0.541,1.332,0.652c0.444,0.113,0.92,0.149,1.5,0.149c0.615,0,1.293-0.271,1.956-0.788	c0.435-0.339,1.064-0.261,1.404,0.173c0.339,0.435,0.261,1.064-0.173,1.404c-0.899,0.701-1.999,1.211-3.187,1.211	c-0.652,0-1.319-0.039-1.997-0.212c-0.473-0.121-0.936-0.304-1.415-0.58l-0.049,0.011c-0.463,0.265-0.925,0.448-1.397,0.569	c-0.677,0.173-1.344,0.212-1.995,0.212C19.383,28.998,18.283,28.489,17.386,27.787z" clip-rule="evenodd"></path><path fill-rule="evenodd" d="M21.002,22.998v-1	c0-0.551,0.448-1,1-1c0.551,0,1,0.449,1,1v1c0,0.552-0.449,1-1,1C21.45,23.998,21.002,23.55,21.002,22.998z" clip-rule="evenodd"></path><path fill-rule="evenodd" d="M25.001,22.998v-1	c0-0.551,0.448-1,1-1c0.551,0,1,0.449,1,1v1c0,0.552-0.449,1-1,1C25.449,23.998,25.001,23.55,25.001,22.998z" clip-rule="evenodd"></path><path fill-rule="evenodd" d="M31.005,16.998	c1.103,0,2,0.896,2,1.999c0,1.103-0.897,1.999-2,1.999s-2-0.896-2-1.999C29.005,17.894,29.902,16.998,31.005,16.998z" clip-rule="evenodd"></path><path fill-rule="evenodd" d="M18.002,41.998v-4.585	c0-0.551,0.448-1,1-1c0.551,0,1,0.449,1,1v4.585c0,0.552-0.449,1-1,1C18.45,42.998,18.002,42.55,18.002,41.998z" clip-rule="evenodd"></path><path fill-rule="evenodd" d="M28.001,41.998v-4.585	c0-0.551,0.448-1,1-1c0.551,0,1,0.449,1,1v4.585c0,0.552-0.449,1-1,1C28.449,42.998,28.001,42.55,28.001,41.998z" clip-rule="evenodd"></path>
</svg>