<svg width="429" height="339" viewBox="0 0 429 339" fill="none" xmlns="http://www.w3.org/2000/svg">
<path d="M166.451 31.5801C247.113 -20.4035 352.017 -0.762792 400.859 75.0247C449.702 150.812 424.253 254.461 343.592 306.444C262.93 358.428 158.026 338.787 109.184 262.999C60.3416 187.212 85.79 83.5636 166.451 31.5801Z" stroke="#FFC400" stroke-width="5"/>
<path d="M35.4383 53.8467C32.3451 42.1394 46.0408 33.313 55.4247 40.9662L81.5822 62.2991C87.4573 67.0907 95.7495 67.555 102.122 63.4483L130.495 45.1629C140.674 38.6033 153.299 48.9001 148.921 60.1896L136.714 91.6605C133.973 98.7288 136.095 106.758 141.97 111.55L168.128 132.884C177.512 140.537 171.62 155.727 159.53 155.052L125.828 153.167C118.258 152.744 111.277 157.243 108.536 164.311L96.3298 195.782C91.951 207.071 75.6832 206.162 72.5897 194.455L63.9669 161.82C62.0302 154.49 55.5945 149.241 48.025 148.818L14.3224 146.934C2.23254 146.257 -1.92914 130.506 8.24917 123.946L36.6223 105.661C42.9947 101.554 45.9972 93.8103 44.0606 86.4805L35.4383 53.8467Z" stroke="#E74880" stroke-width="5"/>
</svg>