<svg xmlns="http://www.w3.org/2000/svg" x="0px" y="0px" width="100" height="100" viewBox="0 0 64 64">
<path d="M 32 7 C 27.033 7 23 10.136 23 14 C 18.033 14 14 17.584 14 22 C 14 23.720846 14.426872 25.292506 15.349609 26.417969 C 15.162486 27.011852 15.009144 27.571993 14.869141 28.09375 L 14.558594 29.060547 L 14.367188 29.072266 C 8.0241875 29.794266 4 35.778047 4 42.498047 C 4 50.780047 12.147953 56.998047 21.501953 56.998047 C 28.527901 56.998047 35.250035 55.637997 41.470703 52.017578 C 43.426785 52.679515 45.452651 52.999297 48 53 C 51.863 53 55 48.072 55 42 C 57.378 40.623 59.001953 37.886281 59.001953 34.738281 C 59.001953 31.166281 56.912 28.126047 54 26.998047 C 56.333 25.646047 57 23.148 57 20 C 57 15.584 52.967 12 48 12 C 44.203 12 42.233 13.108 41 14 C 41 10.136 36.967 7 32 7 z M 27.322266 17.167969 C 28.514266 17.193969 29.665859 17.580437 30.630859 18.273438 C 32.391859 17.817438 34.213375 18.12175 35.734375 19.09375 C 37.255375 20.06775 38.972062 21.546906 39.539062 23.378906 C 40.451062 26.251906 40.703 29.125047 41 31.998047 C 39.344 31.998047 38 33.790047 38 35.998047 C 38 37.654047 38.896 38.998047 40 38.998047 C 42.225 38.998047 43.379 34.998047 46 34.998047 C 48.208 34.998047 50 37.238047 50 39.998047 C 50 43.310047 47.312 45.998047 44 45.998047 C 42.837 45.998047 41.895 45.507047 41 44.998047 C 40.179528 46.606816 39.624908 48.21545 39.25 49.824219 C 33.775962 52.825249 27.842923 53.998047 21.501953 53.998047 C 13.192953 53.998047 7.0019531 48.570047 7.0019531 42.498047 C 7.0019531 36.421047 10.754922 31.998047 15.669922 31.998047 L 16.667969 31.998047 L 17.052734 31.076172 C 17.624734 29.702172 17.923453 28.129422 18.314453 26.982422 C 18.324611 26.952744 18.327739 26.922421 18.335938 26.892578 C 18.99902 24.884002 19.826132 23.491051 20.808594 22.21875 L 22.611328 23.238281 C 23.096328 22.379281 23.803828 22.072938 24.423828 22.085938 C 25.063828 22.098937 25.733859 22.452172 26.130859 23.201172 L 28.779297 21.794922 C 27.877297 20.093922 26.222328 19.121938 24.486328 19.085938 C 23.828203 19.071687 23.175098 19.19276 22.5625 19.443359 C 23.765089 17.945341 25.502818 17.129905 27.322266 17.167969 z M 33.138672 20.041016 C 32.755156 20.060844 32.370281 20.121406 31.988281 20.222656 L 32.755859 23.123047 C 33.463859 22.936047 34.177594 23.047172 34.808594 23.451172 C 35.445594 23.861172 36.067453 24.617406 36.439453 25.816406 L 39.304688 24.929688 C 38.757688 23.161687 37.749781 21.771828 36.425781 20.923828 C 35.427531 20.284828 34.289219 19.981531 33.138672 20.041016 z M 23.648438 24.998047 C 22.765688 24.994391 21.936281 25.401328 21.269531 25.986328 C 20.380531 26.767328 19.676875 27.945453 19.296875 29.314453 C 18.512875 32.137453 19.297844 35.130469 21.464844 35.855469 C 22.671844 36.259469 23.851234 35.796625 24.740234 35.015625 C 25.629234 34.234625 26.332891 33.0565 26.712891 31.6875 C 27.496891 28.8645 26.711922 25.871484 24.544922 25.146484 C 24.243172 25.045484 23.942687 24.999266 23.648438 24.998047 z M 32.638672 25.996094 C 31.755922 25.992437 30.924563 26.399375 30.257812 26.984375 C 29.368813 27.765375 28.665156 28.9435 28.285156 30.3125 C 27.501156 33.1355 28.286125 36.128516 30.453125 36.853516 C 31.660125 37.257516 32.839516 36.793672 33.728516 36.013672 C 34.617516 35.232672 35.321172 34.054547 35.701172 32.685547 C 36.485172 29.862547 35.700203 26.869531 33.533203 26.144531 C 33.231453 26.043531 32.932922 25.997312 32.638672 25.996094 z M 23.650391 27.001953 C 23.745906 27.003297 23.833359 27.018672 23.912109 27.044922 C 24.727109 27.316922 25.370109 29.052344 24.787109 31.152344 C 24.492109 32.213344 23.967922 33.032672 23.419922 33.513672 C 22.866922 34.000672 22.412656 34.062031 22.097656 33.957031 C 21.432305 33.734975 20.891895 32.532029 21.029297 30.957031 C 21.0894 31.677035 21.400935 32.25519 21.898438 32.419922 C 22.650437 32.669922 23.536094 31.894453 23.871094 30.689453 C 24.205094 29.482453 23.867234 28.295875 23.115234 28.046875 C 22.648385 27.891052 22.128952 28.130087 21.722656 28.623047 C 21.98035 28.151361 22.27954 27.760647 22.589844 27.488281 C 23.005344 27.123031 23.363844 26.997922 23.650391 27.001953 z M 32.638672 27.998047 C 32.734187 27.999391 32.821641 28.016719 32.900391 28.042969 C 33.715391 28.314969 34.358391 30.050391 33.775391 32.150391 C 33.480391 33.211391 32.956203 34.030719 32.408203 34.511719 C 31.855203 34.998719 31.400938 35.061078 31.085938 34.955078 C 30.420014 34.732831 29.880828 33.526216 30.019531 31.949219 C 30.078723 32.671255 30.388215 33.252906 30.886719 33.417969 C 31.638719 33.667969 32.524375 32.890547 32.859375 31.685547 C 33.193375 30.478547 32.857469 29.291969 32.105469 29.042969 C 31.637565 28.887416 31.117589 29.129935 30.710938 29.625 C 30.969057 29.15165 31.267031 28.759387 31.578125 28.486328 C 31.993625 28.121078 32.352125 27.994016 32.638672 27.998047 z M 17 36.998047 C 13.264 36.998047 10 39.131047 10 41.998047 C 10 47.826047 17.535 51.998047 23 51.998047 C 29.284 51.998047 37 48.545047 37 42.998047 C 37 39.863047 32.144 37.998047 29 37.998047 C 26.972 37.998047 25.027 38.998047 23 38.998047 C 20.856 38.998047 19.124 36.998047 17 36.998047 z M 16.158203 39.052734 C 16.427203 39.047734 16.708 39.056078 17 39.080078 C 18.321 39.188078 20.345 41.354312 23 41.570312 C 25.38 41.765312 27.241 40.9195 29 41.0625 C 31.539 41.2705 33.916797 42.626922 34.716797 43.794922 C 34.229797 44.216922 33.647 44.442625 33 44.390625 C 30.98 44.226625 30.132016 45.913875 27.541016 45.921875 C 27.369016 45.921875 27.188 45.914437 27 45.898438 C 24.571 45.700438 22.356 44.519172 20 44.326172 C 17.012 44.082172 16 41.882047 16 39.998047 C 16 39.674047 16.056203 39.360734 16.158203 39.052734 z"></path>
</svg>