<svg width="430" height="339" viewBox="0 0 430 339" fill="none" xmlns="http://www.w3.org/2000/svg">
<path d="M84.5803 31.5801C165.242 -20.4035 270.146 -0.762792 318.988 75.0247C367.831 150.812 342.382 254.461 261.721 306.444C181.059 358.428 76.1554 338.787 27.3129 262.999C-21.5295 187.212 3.91891 83.5636 84.5803 31.5801Z" stroke="#E74880" stroke-width="5"/>
<path d="M288.829 47.3131C285.489 34.6695 300.278 25.138 310.413 33.4032L336.571 54.7369C342.11 59.2547 349.929 59.6917 355.938 55.8197L384.311 37.5342C395.303 30.4498 408.94 41.5708 404.211 53.7635L392.004 85.2336C389.419 91.8979 391.419 99.4689 396.958 103.987L423.116 125.321C433.251 133.586 426.889 149.991 413.832 149.261L380.129 147.378C372.992 146.979 366.41 151.221 363.825 157.885L351.618 189.355C346.889 201.548 329.321 200.565 325.981 187.921L317.358 155.287C315.532 148.376 309.463 143.427 302.326 143.028L268.624 141.145C255.567 140.414 251.072 123.402 262.065 116.318L290.438 98.0321C296.446 94.1598 299.278 86.8587 297.452 79.9478L288.829 47.3131Z" stroke="#0F75BC" stroke-width="3"/>
</svg>