<svg xmlns="http://www.w3.org/2000/svg" x="0px" y="0px" width="100" height="100" viewBox="0 0 48 48">
<path fill-rule="evenodd" d="M1.994,31.998v2.001h2.001v-2.001	H1.994z" clip-rule="evenodd"></path><path fill-rule="evenodd" d="M7.995,14.998v2.001h2.001v-2.001	H7.995z" clip-rule="evenodd"></path><path fill-rule="evenodd" d="M41.994,12.997v2.001h2.001v-2.001	H41.994z" clip-rule="evenodd"></path><path fill-rule="evenodd" d="M43.994,24.997v2.001h2.001v-2.001	H43.994z" clip-rule="evenodd"></path><path fill-rule="evenodd" d="M1.995,33.998	c0-4.108,2.089-9.301,7.807-9.935l0.193-0.011l-0.001-1.757c-0.896-1.388-1.999-3.288-1.999-5.297c0-3.609,3-6.261,6.484-6.868	l0.584-0.051l0.131-0.684c0.907-3.509,4.727-5.397,7.801-5.397c3.069,0,6.523,1.888,8.273,4.456l0.149,0.265l0.099-0.044	c1.031-0.397,2.227-0.677,3.479-0.677c4.008,0,9,2.944,9,7c0,2.02-0.349,3.491-1.185,5.017l-0.459,0.715l0.936,0.653	c1.619,1.345,2.708,3.057,2.708,5.615c0,2.217-0.732,4.265-2.537,6.039l-0.489,0.433l-0.089,1.631	c-0.537,4.701-2.932,7.897-6.884,7.897c-1.389,0-2.913-0.167-4.355-0.592c-4.643,2.276-9.584,3.592-14.645,3.592	C8.295,45.998,1.995,40.663,1.995,33.998z" clip-rule="evenodd"></path><path fill="#fff" fill-rule="evenodd" d="M38.995,33.998l1-6	l-4-12l-13-8l-12,6v9c-5.865,0-8,4.899-8,9c0,5.933,5.655,11,14,11c5.905,0,11.673-1.856,17-5L38.995,33.998z" clip-rule="evenodd"></path><path fill-rule="evenodd" d="M13.51,16.631	c-0.624-0.544-0.691-1.492-0.148-2.117c0.743-0.853,1.883-1.516,3.133-1.516c0.751,0,1.399,0.217,1.924,0.516	c0.517,0.293,0.917,0.667,1.207,1c0.544,0.625,0.477,1.573-0.147,2.116c-0.625,0.544-1.573,0.477-2.116-0.147	c-0.129-0.148-0.275-0.275-0.425-0.361c-0.143-0.08-0.285-0.124-0.443-0.124c-0.221,0-0.585,0.159-0.868,0.485	C15.083,17.107,14.135,17.174,13.51,16.631z" clip-rule="evenodd"></path><path fill-rule="evenodd" d="M1.995,31.998	c0-4.108,2.089-9.301,7.807-9.935l0.193-0.011v-8.055c0-0.379,0.213-0.724,0.552-0.893l12-6c0.309-0.155,0.677-0.139,0.972,0.043	l13,8c0.2,0.123,0.349,0.312,0.424,0.535l4,12c0.052,0.155,0.064,0.32,0.037,0.481l-1,6c-0.04,0.243-0.169,0.463-0.361,0.616l-5,4	c-0.036,0.029-0.076,0.056-0.116,0.08c-5.449,3.216-11.391,5.139-17.508,5.139C8.295,43.998,1.995,38.663,1.995,31.998z M33.433,37.167l4.639-3.711l0.896-5.377l-3.807-11.42L22.945,9.142l-10.949,5.475v8.381c0,0.552-0.449,1-1,1c-5.08,0-7,4.137-7,8	c0,5.203,5.008,10,13,10c4.98,0,9.885-1.368,14.521-3.768L33.433,37.167z" clip-rule="evenodd"></path><path fill="#fff" fill-rule="evenodd" d="M10.995,19.998	c-0.937-1.435-2-3.207-2-5c0-3.412,3.295-6,7-6c0-3.751,3.775-6,7-6c3.143,0,6.779,2.259,8,5c1.107-0.559,2.523-1,4-1	c3.741,0,8,2.779,8,6c0,2.464-0.541,3.979-2,6c2.419,1.459,4,3.099,4,6c0,2.235-0.821,4.259-3,6c0,5.619-2.289,9-6,9	c-2.425,0-5.141-0.541-7-2c0-1.839,0.723-3.22,2-4c0.471,0.595,1.211,1,2,1c2.355,0,5-2.713,5-5c0-1.665-1.229-4-3-4	c-2.288,0-3.639,3-5,3c-0.941,0-2-1.107-2-2c0-2.263,1.613-2.967,3-4c0-5.901-4.367-11-10-11	C16.374,11.998,12.774,16.017,10.995,19.998z" clip-rule="evenodd"></path><path fill-rule="evenodd" d="M26.197,17.251	c-0.216-0.375-0.504-0.667-0.895-0.876c-0.396-0.213-0.971-0.377-1.807-0.377c-0.828,0-1.5-0.672-1.5-1.5c0-0.827,0.672-1.5,1.5-1.5	c1.229,0,2.311,0.243,3.224,0.732c0.921,0.495,1.601,1.201,2.073,2.016c0.415,0.717,0.171,1.635-0.545,2.051	C27.53,18.211,26.613,17.967,26.197,17.251z" clip-rule="evenodd"></path><path fill-rule="evenodd" d="M28.377,38.786	c-0.241-0.191-0.381-0.48-0.381-0.788c0-2.119,0.849-3.859,2.479-4.853c0.431-0.263,0.991-0.163,1.305,0.233	c0.303,0.383,0.765,0.62,1.216,0.62c1.789,0,4-2.256,4-4c0-1.455-1.045-3-2-3c-1.749,0-2.871,2.767-4.776,2.988l-0.056,0.004	l-0.111,0.007l-0.057,0.001c-1.509,0-3-1.564-3-3c0-2.168,1.26-3.297,2.38-4.092l0.575-0.399l-0.137-1.505	c-0.839-4.527-4.464-8.004-8.817-8.004c-4.02,0-7.363,3.548-9.088,7.408c-0.321,0.721-1.317,0.801-1.749,0.14	c-0.919-1.405-2.163-3.415-2.163-5.548c0-3.609,3-6.261,6.484-6.868l0.584-0.051l0.131-0.684c0.907-3.509,4.727-5.397,7.801-5.397	c3.069,0,6.523,1.888,8.273,4.456l0.149,0.265l0.099-0.044c1.031-0.397,2.227-0.677,3.479-0.677c4.008,0,9,2.944,9,7	c0,2.02-0.349,3.491-1.185,5.017l-0.459,0.715l0.936,0.653c1.619,1.345,2.708,3.057,2.708,5.615c0,2.217-0.732,4.265-2.537,6.039	l-0.489,0.433l-0.089,1.631c-0.537,4.701-2.932,7.897-6.884,7.897C33.466,40.998,30.487,40.442,28.377,38.786z M40.995,30.998	c0-0.303,0.137-0.591,0.375-0.78c1.937-1.548,2.625-3.283,2.625-5.22c0-2.391-1.229-3.764-3.517-5.143	c-0.5-0.303-0.636-0.968-0.295-1.441c1.348-1.867,1.812-3.18,1.812-5.416c0-2.419-3.564-5-7-5c-1.288,0-2.549,0.388-3.551,0.893	c-0.509,0.257-1.131,0.036-1.364-0.485c-1.048-2.355-4.309-4.408-7.085-4.408c-2.939,0-6,2.035-6,5c0,0.552-0.449,1-1,1	c-3.331,0-6,2.303-6,5c0,0.728,0.22,1.475,0.559,2.224l0.375,0.716l0.896-1.42c2.103-2.993,5.252-5.52,9.171-5.52	c6.289,0,11,5.657,11,12c0,0.316-0.149,0.613-0.403,0.803c-1.613,1.201-2.597,1.565-2.597,3.197c0,0.257,0.351,0.692,0.685,0.892	l0.313,0.108l0.127-0.053c0.079-0.044,0.195-0.121,0.355-0.255c0.317-0.263,0.615-0.572,1.053-0.981	c0.773-0.725,1.923-1.711,3.467-1.711c2.619,0,4,3.088,4,5c0,2.836-3.085,6-6,6c-0.565,0-1.101-0.143-1.577-0.387l-0.461-0.304	l-0.069,0.057c-0.372,0.399-0.645,0.917-0.785,1.565l-0.055,0.544l0.913,0.549c1.476,0.68,3.292,0.975,5.035,0.975	C38.863,38.998,40.995,36.467,40.995,30.998z" clip-rule="evenodd"></path><path fill-rule="evenodd" d="M19.813,26.221	c-0.668-1.043-0.943-2.411-0.763-3.847c0.356-2.832,2.475-5.376,5.013-5.376c1.341,0,2.439,0.724,3.116,1.779	c0.668,1.043,0.943,2.411,0.763,3.847c-0.356,2.832-2.475,5.375-5.012,5.375C21.587,27.998,20.49,27.275,19.813,26.221z M25.957,22.374c0.132-1.048-0.084-1.929-0.461-2.517c-0.365-0.571-0.872-0.859-1.432-0.859c-1.26,0-2.757,1.469-3.028,3.625	c-0.132,1.048,0.084,1.929,0.461,2.517c0.365,0.571,0.872,0.857,1.433,0.857C24.189,25.998,25.686,24.53,25.957,22.374z" clip-rule="evenodd"></path><path fill-rule="evenodd" d="M12.782,26.907	c-1.971-0.507-3.024-2.892-2.741-5.516c0.304-2.829,2.144-5.393,4.44-5.393c1.277,0,2.259,0.805,2.825,1.837	c0.565,1.028,0.793,2.367,0.643,3.771c-0.076,0.697-0.239,1.365-0.473,1.98c-0.207,0.541-0.829,0.795-1.355,0.551	c-0.191-0.088-0.401-0.139-0.625-0.139c-0.829,0-1.501,0.673-1.501,1.5c0,0.099,0.007,0.187,0.021,0.265	C14.142,26.479,13.486,27.087,12.782,26.907z M15.495,21.998l0.361,0.021l0.048-0.236c0.023-0.128,0.041-0.259,0.056-0.392	c0.116-1.08-0.076-1.991-0.407-2.592c-0.325-0.591-0.713-0.801-1.073-0.801c-0.929,0-2.22,1.444-2.452,3.608	c-0.104,0.967,0.028,1.763,0.277,2.339l0.028,0.057l0.083-0.171C13.01,22.739,14.166,21.998,15.495,21.998z" clip-rule="evenodd"></path><path fill-rule="evenodd" d="M23.157,20.998	c0.544,0,0.913,0.672,0.825,1.5s-0.604,1.5-1.148,1.5c-0.544,0-0.913-0.672-0.825-1.5C22.097,21.67,22.613,20.998,23.157,20.998z" clip-rule="evenodd"></path><path fill-rule="evenodd" d="M14.157,19.998	c0.544,0,0.913,0.672,0.825,1.5s-0.604,1.5-1.148,1.5c-0.544,0-0.913-0.672-0.825-1.5C13.097,20.67,13.613,19.998,14.157,19.998z" clip-rule="evenodd"></path><path fill-rule="evenodd" d="M5.995,31.998c0-2.421,2.889-4,5-4	c1.793,0,3.169,2,5,2c2.025,0,3.939-1,6-1c2.133,0,5,1.859,5,4c0,4.344-6.485,7-11,7C11.729,39.998,5.995,37.177,5.995,31.998z" clip-rule="evenodd"></path><path fill="#fff" fill-rule="evenodd" d="M14.995,32.998h-2	c-1.201,0-3-0.473-3-2c0-0.295,0.035-0.588,0.099-0.876c0.291-0.079,0.596-0.124,0.901-0.124c0.196,0,0.504,0.119,1.423,0.695	c0.691,0.433,1.987,1.305,3.577,1.305c2.383,0,4.207-1,6-1c1.352,0,2.688,1.095,2.952,1.781c-0.268,0.139-0.581,0.219-0.952,0.219	c-1.431,0-2.513,2-5,2C17.327,34.998,16.486,32.998,14.995,32.998z" clip-rule="evenodd"></path>
</svg>